<svg xmlns="http://www.w3.org/2000/svg" xmlns:xlink="http://www.w3.org/1999/xlink" version="1.1" x="0px" y="0px" viewBox="0 0 1417.322 123.676" enable-background="new 0 0 1417.322 123.676" xml:space="preserve" style="fill: rgb(0, 0, 0);">
<g id="__id122_sep65wlm1">
</g>
<g id="__id123_sep65wlm1">
	<g id="__id124_sep65wlm1">
		<polygon points="531.494,0 407.831,123.676 459.677,123.676 583.351,0   " style="fill: #41B883;"></polygon>
		<polygon points="885.816,0 762.157,123.676 814.007,123.676 937.664,0   " style="fill: #41B883;"></polygon>
		<polygon points="442.917,0 319.256,123.676 371.098,123.676 494.766,0   " style="fill: #41B883;"></polygon>
		<polygon points="708.667,0 584.99,123.676 636.847,123.676 760.51,0   " style="fill: #41B883;"></polygon>
		<polygon points="797.248,0 673.576,123.676 725.421,123.676 849.089,0   " style="fill: #41B883;"></polygon>
		<polygon points="354.331,0 230.668,123.676 282.512,123.676 406.188,0   " style="fill: #41B883;"></polygon>
		<polygon points="620.08,0 496.412,123.676 548.261,123.676 671.929,0   " style="fill: #41B883;"></polygon>
		<polygon points="265.758,0 142.082,123.676 193.939,123.676 317.602,0   " style="fill: #41B883;"></polygon>
		<polygon points="0.009,0 0,0.009 0,51.857 51.857,0   " style="fill: #41B883;"></polygon>
		<polygon points="140.439,0 88.595,0 0,88.596 0,123.676 16.776,123.676   " style="fill: #41B883;"></polygon>
		<polygon points="177.172,0 53.505,123.676 105.353,123.676 229.016,0   " style="fill: #41B883;"></polygon>
		<polygon points="1417.323,123.676 1417.323,88.579 1382.232,123.676   " style="fill: #41B883;"></polygon>
		<polygon points="1062.989,0 939.311,123.676 991.16,123.676 1114.845,0   " style="fill: #41B883;"></polygon>
		<polygon points="974.402,0 850.743,123.676 902.582,123.676 1026.26,0   " style="fill: #41B883;"></polygon>
		<polygon points="1151.565,0 1027.897,123.676 1079.746,123.676 1203.424,0   " style="fill: #41B883;"></polygon>
		<polygon points="1293.638,123.676 1345.495,123.676 1417.323,51.84 1417.323,0   " style="fill: #41B883;"></polygon>
		<polygon points="1328.738,0 1205.06,123.676 1256.919,123.676 1380.576,0   " style="fill: #41B883;"></polygon>
		<polygon points="1240.151,0 1116.483,123.676 1168.343,123.676 1291.99,0   " style="fill: #41B883;"></polygon>
	</g>
</g>
<g id="__id125_sep65wlm1">
</g>
</svg>